<?xml version="1.0" encoding="UTF-8"?>
<svg id="_レイヤー_1" data-name="レイヤー_1" xmlns="http://www.w3.org/2000/svg" version="1.1" viewBox="0 0 269.29 510.24">
  <!-- Generator: Adobe Illustrator 30.0.0, SVG Export Plug-In . SVG Version: 2.1.1 Build 123)  -->
  <defs>
    <style>
      .st0 {
        font-family: YuGo-Medium-83pv-RKSJ-H, 'Yu Gothic Medium', 'Yu Gothic', YuGothic, 'Hiragino Kaku Gothic ProN', sans-serif;
        font-size: 11.34px;
        font-weight: 500;
      }

      .st1 {
        font-family: YuGo-Bold-83pv-RKSJ-H, 'Yu Gothic Medium', 'Yu Gothic', YuGothic, 'Hiragino Kaku Gothic ProN', sans-serif;
        font-size: 11.34px;
        font-weight: 700;
      }

      .st2 {
        letter-spacing: .25em;
      }

      .st3 {
        letter-spacing: .25em;
      }

      .st4 {
        fill: #fff;
      }

      .st5 {
        letter-spacing: 0em;
      }

      .st6 {
        fill: none;
        stroke: #000;
        stroke-miterlimit: 10;
        stroke-width: .85px;
      }
    </style>
  </defs>
  <text class="st0" transform="translate(84.34 63.14)"><tspan x="0" y="0">自身の興味・関心</tspan><tspan x="0" y="19.84">生活の中で生まれる問い</tspan><tspan x="0" y="39.69">未来の展望</tspan><tspan x="0" y="59.53">社会へ提案</tspan><tspan x="0" y="79.37">外部からの依頼</tspan><tspan x="0" y="99.21">作る行為に伴う課題</tspan><tspan x="0" y="119.06">などなど</tspan></text>
  <text class="st0" transform="translate(112.32 469.44)"><tspan x="0" y="0">制作・実装</tspan><tspan x="-19.79" y="19.84">評</tspan><tspan class="st3" x="-8.45" y="19.84">価(</tspan><tspan class="st5" x="12.86" y="19.84">自</tspan><tspan class="st3" x="24.2" y="19.84">身/</tspan><tspan x="46.66" y="19.84">他</tspan><tspan class="st2" x="58" y="19.84">者</tspan><tspan x="72.17" y="19.84">)</tspan></text>
  <g>
    <circle class="st6" cx="138.86" cy="320.73" r="70.87"/>
    <rect class="st4" x="93.4" y="240.24" width="92.19" height="22.68"/>
    <rect class="st4" x="37" y="296.78" width="63.84" height="22.68"/>
    <rect class="st4" x="166.09" y="296.78" width="83.84" height="22.68"/>
    <rect class="st4" x="164.67" y="367.03" width="60.91" height="22.68"/>
    <rect class="st4" x="78.96" y="367.03" width="28.88" height="22.68"/>
    <text class="st0" transform="translate(61.55 380.97)"><tspan x="0" y="0">試</tspan><tspan class="st3" x="11.34" y="0">作/</tspan><tspan class="st5" x="33.8" y="0">検証</tspan></text>
    <text class="st0" transform="translate(54.54 312.48)"><tspan x="0" y="0">考察</tspan></text>
    <text class="st0" transform="translate(156.09 381.21)"><tspan x="0" y="0">スケッ</tspan><tspan class="st3" x="34.02" y="0">チ/</tspan><tspan class="st5" x="56.48" y="0">仮設</tspan></text>
    <text class="st0" transform="translate(99.17 257.5)"><tspan x="0" y="0">リサー</tspan><tspan class="st3" x="34.02" y="0">チ/</tspan><tspan class="st5" x="56.48" y="0">観察</tspan></text>
    <text class="st0" transform="translate(167.09 312.48)"><tspan x="0" y="0">アイデ</tspan><tspan class="st3" x="34.02" y="0">ア/</tspan><tspan class="st5" x="56.48" y="0">推論</tspan></text>
  </g>
  <g>
    <line class="st6" x1="140.67" y1="191.98" x2="140.67" y2="228.4"/>
    <polygon points="136.43 227.16 140.67 234.5 144.91 227.16 136.43 227.16"/>
  </g>
  <g>
    <line class="st6" x1="140.67" y1="402.71" x2="140.67" y2="439.12"/>
    <polygon points="136.43 437.88 140.67 445.23 144.91 437.88 136.43 437.88"/>
  </g>
  <g>
    <polyline class="st6" points="82.17 473.22 25.48 473.22 27.58 118.3 73.97 118.3"/>
    <polygon points="72.73 122.54 80.07 118.3 72.73 114.06 72.73 122.54"/>
  </g>
  <text class="st1" transform="translate(25.48 30.18)"><tspan x="0" y="0">取り組みの流れ</tspan></text>
</svg>