<?xml version="1.0" encoding="UTF-8"?>
<svg id="_レイヤー_1" data-name="レイヤー_1" xmlns="http://www.w3.org/2000/svg" version="1.1" viewBox="0 0 623.62 255.12">
  <!-- Generator: Adobe Illustrator 30.0.0, SVG Export Plug-In . SVG Version: 2.1.1 Build 123)  -->
  <defs>
    <style>
      .st0 {
        font-family: YuGo-Bold-83pv-RKSJ-H, YuGothic;
        font-size: 11.34px;
        font-weight: 700;
      }

      .st1 {
        fill: none;
        stroke: #000;
        stroke-miterlimit: 10;
        stroke-width: 1.42px;
      }

      .st2 {
        letter-spacing: .25em;
      }

      .st3 {
        letter-spacing: .25em;
      }

      .st4 {
        fill: #fff;
      }

      .st5 {
        letter-spacing: 0em;
      }
    </style>
  </defs>
  <text class="st0" transform="translate(18 59.77)"><tspan x="0" y="0">自身の興味・関心</tspan><tspan x="0" y="19.84">生活の中で生まれる問い</tspan><tspan x="0" y="39.69">未来の展望</tspan><tspan x="0" y="59.53">社会へ提案</tspan><tspan x="0" y="79.37">外部からの依頼</tspan><tspan x="0" y="99.21">作る行為に伴う課題</tspan><tspan x="0" y="119.06">などなど</tspan></text>
  <text class="st0" transform="translate(526.83 107.87)"><tspan x="0" y="0">制作・実装</tspan><tspan x="-20.15" y="19.84">評</tspan><tspan class="st3" x="-8.81" y="19.84">価(</tspan><tspan class="st5" x="12.76" y="19.84">自</tspan><tspan class="st3" x="24.09" y="19.84">身/</tspan><tspan x="46.77" y="19.84">他</tspan><tspan class="st2" x="58.11" y="19.84">者</tspan><tspan x="72.28" y="19.84">)</tspan></text>
  <g>
    <circle class="st1" cx="319.21" cy="116.37" r="70.87"/>
    <rect class="st4" x="281.47" y="35.88" width="80.43" height="22.68"/>
    <rect class="st4" x="218.01" y="103.42" width="63.84" height="22.68"/>
    <rect class="st4" x="347.11" y="103.42" width="83.84" height="22.68"/>
    <rect class="st4" x="341.67" y="162.67" width="64.93" height="22.68"/>
    <rect class="st4" x="259.97" y="162.67" width="28.88" height="22.68"/>
    <text class="st0" transform="translate(346.62 178.94)"><tspan x="0" y="0">試</tspan><tspan class="st3" x="11.34" y="0">作/</tspan><tspan class="st5" x="34.02" y="0">検証</tspan></text>
    <text class="st0" transform="translate(260.6 178.94)"><tspan x="0" y="0">考察</tspan></text>
    <text class="st0" transform="translate(348.51 119.13)"><tspan x="0" y="0">スケッ</tspan><tspan class="st3" x="34.02" y="0">チ/</tspan><tspan class="st5" x="56.69" y="0">仮設</tspan></text>
    <text class="st0" transform="translate(209.35 119.13)"><tspan x="0" y="0">リサー</tspan><tspan class="st3" x="34.02" y="0">チ/</tspan><tspan class="st5" x="56.69" y="0">観察</tspan></text>
    <text class="st0" transform="translate(281.47 51.77)"><tspan x="0" y="0">アイデ</tspan><tspan class="st3" x="34.02" y="0">ア/</tspan><tspan class="st5" x="56.69" y="0">推論</tspan></text>
  </g>
  <g>
    <line class="st1" x1="152.54" y1="114.76" x2="187.43" y2="114.76"/>
    <polygon points="185.88 120.06 195.06 114.76 185.88 109.46 185.88 120.06"/>
  </g>
  <g>
    <line class="st1" x1="444.54" y1="114.76" x2="479.43" y2="114.76"/>
    <polygon points="477.88 120.06 487.06 114.76 477.88 109.46 477.88 120.06"/>
  </g>
  <g>
    <polyline class="st1" points="555.18 140.92 555.18 226.58 80.53 226.58 80.53 197.38"/>
    <polygon points="85.83 198.93 80.53 189.75 75.23 198.93 85.83 198.93"/>
  </g>
</svg>