<?xml version="1.0" encoding="UTF-8"?>
<svg id="_レイヤー_1" data-name="レイヤー_1" xmlns="http://www.w3.org/2000/svg" version="1.1" viewBox="0 0 623.62 255.12">
  <!-- Generator: Adobe Illustrator 30.0.0, SVG Export Plug-In . SVG Version: 2.1.1 Build 123)  -->
  <defs>
    <style>
      .st0 {
        font-family: YuGo-Medium-83pv-RKSJ-H, YuGothic;
        font-weight: 500;
      }

      .st0, .st1 {
        font-size: 11.34px;
      }

      .st1 {
        font-family: YuGo-Bold-83pv-RKSJ-H, YuGothic;
        font-weight: 700;
      }

      .st2 {
        letter-spacing: .25em;
      }

      .st3 {
        letter-spacing: .25em;
      }

      .st4 {
        fill: #fff;
      }

      .st5 {
        letter-spacing: 0em;
      }

      .st6 {
        fill: none;
        stroke: #000;
        stroke-miterlimit: 10;
        stroke-width: .85px;
      }
    </style>
  </defs>
  <text class="st0" transform="translate(18 69.78)"><tspan x="0" y="0">自身の興味・関心</tspan><tspan x="0" y="19.84">生活の中で生まれる問い</tspan><tspan x="0" y="39.69">未来の展望</tspan><tspan x="0" y="59.53">社会へ提案</tspan><tspan x="0" y="79.37">外部からの依頼</tspan><tspan x="0" y="99.21">作る行為に伴う課題</tspan><tspan x="0" y="119.06">などなど</tspan></text>
  <text class="st0" transform="translate(526.83 117.88)"><tspan x="0" y="0">制作・実装</tspan><tspan x="-19.79" y="19.84">評</tspan><tspan class="st3" x="-8.45" y="19.84">価(</tspan><tspan class="st5" x="12.86" y="19.84">自</tspan><tspan class="st3" x="24.2" y="19.84">身/</tspan><tspan x="46.66" y="19.84">他</tspan><tspan class="st2" x="58" y="19.84">者</tspan><tspan x="72.17" y="19.84">)</tspan></text>
  <g>
    <circle class="st6" cx="319.21" cy="126.38" r="70.87"/>
    <rect class="st4" x="281.47" y="35.88" width="80.43" height="32.68"/>
    <rect class="st4" x="218.01" y="113.43" width="63.84" height="22.68"/>
    <rect class="st4" x="347.11" y="113.43" width="83.84" height="22.68"/>
    <rect class="st4" x="341.67" y="172.68" width="64.93" height="22.68"/>
    <rect class="st4" x="259.97" y="172.68" width="28.88" height="22.68"/>
    <text class="st0" transform="translate(346.62 188.95)"><tspan x="0" y="0">試</tspan><tspan class="st3" x="11.34" y="0">作/</tspan><tspan class="st5" x="33.8" y="0">検証</tspan></text>
    <text class="st0" transform="translate(260.6 188.95)"><tspan x="0" y="0">考察</tspan></text>
    <text class="st0" transform="translate(348.51 129.13)"><tspan x="0" y="0">スケッ</tspan><tspan class="st3" x="34.02" y="0">チ/</tspan><tspan class="st5" x="56.48" y="0">仮設</tspan></text>
    <text class="st0" transform="translate(209.35 129.13)"><tspan x="0" y="0">リサー</tspan><tspan class="st3" x="34.02" y="0">チ/</tspan><tspan class="st5" x="56.48" y="0">観察</tspan></text>
    <text class="st0" transform="translate(281.47 61.77)"><tspan x="0" y="0">アイデ</tspan><tspan class="st3" x="34.02" y="0">ア/</tspan><tspan class="st5" x="56.48" y="0">推論</tspan></text>
  </g>
  <g>
    <line class="st6" x1="152.54" y1="124.77" x2="188.96" y2="124.77"/>
    <polygon points="187.72 129.01 195.06 124.77 187.72 120.53 187.72 129.01"/>
  </g>
  <g>
    <line class="st6" x1="444.54" y1="124.77" x2="480.96" y2="124.77"/>
    <polygon points="479.72 129.01 487.06 124.77 479.72 120.53 479.72 129.01"/>
  </g>
  <g>
    <polyline class="st6" points="555.18 150.93 555.18 236.59 80.53 236.59 80.53 205.86"/>
    <polygon points="84.77 207.1 80.53 199.76 76.29 207.1 84.77 207.1"/>
  </g>
  <text class="st1" transform="translate(18 25.69)"><tspan x="0" y="0">取り組みの流れ</tspan></text>
</svg>