<?xml version="1.0" encoding="UTF-8"?>
<svg id="_レイヤー_1" data-name="レイヤー_1" xmlns="http://www.w3.org/2000/svg" version="1.1" viewBox="0 0 269.29 510.24">
  <!-- Generator: Adobe Illustrator 30.0.0, SVG Export Plug-In . SVG Version: 2.1.1 Build 123)  -->
  <defs>
    <style>
      .st0 {
        font-family: YuGo-Bold-83pv-RKSJ-H, YuGothic;
        font-size: 11.34px;
        font-weight: 700;
      }

      .st1 {
        fill: none;
        stroke: #000;
        stroke-miterlimit: 10;
        stroke-width: 1.42px;
      }

      .st2 {
        letter-spacing: .25em;
      }

      .st3 {
        letter-spacing: .25em;
      }

      .st4 {
        fill: #fff;
      }

      .st5 {
        letter-spacing: 0em;
      }
    </style>
  </defs>
  <text class="st0" transform="translate(84.34 30.12)"><tspan x="0" y="0">自身の興味・関心</tspan><tspan x="0" y="19.84">生活の中で生まれる問い</tspan><tspan x="0" y="39.69">未来の展望</tspan><tspan x="0" y="59.53">社会へ提案</tspan><tspan x="0" y="79.37">外部からの依頼</tspan><tspan x="0" y="99.21">作る行為に伴う課題</tspan><tspan x="0" y="119.06">などなど</tspan></text>
  <text class="st0" transform="translate(112.32 466.44)"><tspan x="0" y="0">制作・実装</tspan><tspan x="-20.15" y="19.84">評</tspan><tspan class="st3" x="-8.81" y="19.84">価(</tspan><tspan class="st5" x="12.76" y="19.84">自</tspan><tspan class="st3" x="24.09" y="19.84">身/</tspan><tspan x="46.77" y="19.84">他</tspan><tspan class="st2" x="58.11" y="19.84">者</tspan><tspan x="72.28" y="19.84">)</tspan></text>
  <g>
    <circle class="st1" cx="138.86" cy="303.72" r="70.87"/>
    <rect class="st4" x="93.4" y="223.23" width="92.19" height="22.68"/>
    <rect class="st4" x="37" y="279.77" width="63.84" height="22.68"/>
    <rect class="st4" x="166.09" y="279.77" width="83.84" height="22.68"/>
    <rect class="st4" x="164.67" y="350.02" width="60.91" height="22.68"/>
    <rect class="st4" x="78.96" y="350.02" width="28.88" height="22.68"/>
    <text class="st0" transform="translate(61.55 363.96)"><tspan x="0" y="0">試</tspan><tspan class="st3" x="11.34" y="0">作/</tspan><tspan class="st5" x="34.02" y="0">検証</tspan></text>
    <text class="st0" transform="translate(54.54 295.47)"><tspan x="0" y="0">考察</tspan></text>
    <text class="st0" transform="translate(156.09 364.2)"><tspan x="0" y="0">スケッ</tspan><tspan class="st3" x="34.02" y="0">チ/</tspan><tspan class="st5" x="56.69" y="0">仮設</tspan></text>
    <text class="st0" transform="translate(99.17 240.49)"><tspan x="0" y="0">リサー</tspan><tspan class="st3" x="34.02" y="0">チ/</tspan><tspan class="st5" x="56.69" y="0">観察</tspan></text>
    <text class="st0" transform="translate(167.09 295.47)"><tspan x="0" y="0">アイデ</tspan><tspan class="st3" x="34.02" y="0">ア/</tspan><tspan class="st5" x="56.69" y="0">推論</tspan></text>
  </g>
  <g>
    <line class="st1" x1="140.67" y1="166.96" x2="140.67" y2="201.86"/>
    <polygon points="135.37 200.3 140.67 209.48 145.97 200.3 135.37 200.3"/>
  </g>
  <g>
    <line class="st1" x1="140.67" y1="393.7" x2="140.67" y2="428.59"/>
    <polygon points="135.37 427.04 140.67 436.22 145.97 427.04 135.37 427.04"/>
  </g>
  <g>
    <polyline class="st1" points="82.17 470.22 25.48 470.22 25.48 85.38 70.34 85.38"/>
    <polygon points="68.79 90.68 77.97 85.38 68.79 80.08 68.79 90.68"/>
  </g>
</svg>